<svg width="20" height="20" viewBox="0 0 20 20" fill="none" xmlns="http://www.w3.org/2000/svg">
<path d="M16.625 17.5C16.875 17.5 17.0833 17.4167 17.25 17.25C17.4167 17.0833 17.5 16.875 17.5 16.625V13.25C17.5 13.0556 17.4375 12.8853 17.3125 12.7392C17.1875 12.5936 17.0278 12.5 16.8333 12.4583L13.9583 11.875C13.7639 11.8472 13.5658 11.8644 13.3642 11.9267C13.1631 11.9894 13 12.0833 12.875 12.2083L10.9167 14.1667C9.86111 13.5278 8.89583 12.7708 8.02083 11.8958C7.14583 11.0208 6.41667 10.0833 5.83333 9.08333L7.83333 7.04167C7.95833 6.91667 8.03833 6.77417 8.07333 6.61417C8.10778 6.45472 8.11111 6.27778 8.08333 6.08333L7.54167 3.16667C7.51389 2.97222 7.42361 2.8125 7.27083 2.6875C7.11806 2.5625 6.94444 2.5 6.75 2.5H3.375C3.125 2.5 2.91667 2.58333 2.75 2.75C2.58333 2.91667 2.5 3.125 2.5 3.375C2.5 5.16667 2.89944 6.91306 3.69833 8.61417C4.49667 10.3158 5.55222 11.8228 6.865 13.135C8.17722 14.4478 9.68389 15.5033 11.385 16.3017C13.0867 17.1006 14.8333 17.5 16.625 17.5Z" fill="#7B7E88"/>
</svg>
